<?xml version="1.0" encoding="UTF-8"?><svg xmlns="http://www.w3.org/2000/svg" viewBox="0 0 786.55 944.25"><defs><style>.cls-1{fill:#3b82f6;}.cls-2{fill:none;stroke:#fff;stroke-miterlimit:10;stroke-width:3px;}.cls-3{fill:#1d4ed8;}</style></defs><g id="Livello_3"><path class="cls-3" d="m411.64,803.25s150.45-88.44,161.07-159.56c0,0,6.8-45.77-55.35-53.54-2.66-.33-5.34-.18-8.02-.31-27.91-1.31-167.94,6.52-195.43-15.27-28.01-22.21-36.23-40.55,10.95-95.07,0,0,27.57-33.9,61.51-64.48,30.16-27.18,64.43-67.81,78.83-98.7,6.73-14.44,6.26-31.28-1.82-45.02-9.11-15.51-27.02-35.79-61.08-46.39,0,0-52.49-21.28-192.77-19.29,0,0,206.47-43.48,330.66,53.02,4.27,3.32,7.96,7.32,10.94,11.83,10,15.14,27.74,52.65-11.63,91-9.03,8.8-14.34,12.83-20.16,16.67-18.23,12.01-60.93,39.83-77.69,76.3-7.55,16.43-1.65,35.87,13.08,46.35,8.48,6.03,21.27,16.08,48.03,20.97,2.18.4,4.27,1.05,6.47,1.28,17.58,1.89,82.54,1.67,122.13,42.87,2.54,2.64,4.93,5.66,6.47,8.88,8.45,17.73,40.58,65.27-78.74,148.25-46.04,32.02-60.79,41.32-147.45,80.21Z"/></g><g id="Livello_4"><path class="cls-1" d="m566.18,352.2s-12.96,40.88-34.9,48.86c0,0,65.81,95.72,132.62,111.68,0,0,51.85,8.97,68.8-80.27,0,0-76.78,142.09-166.52-80.27Z"/><ellipse class="cls-1" cx="559.2" cy="186.68" rx="49.86" ry="52.85"/></g><g id="Livello_6"><path class="cls-1" d="m279.01,588.52c-43.87,128.63-173.5,214.71-173.5,214.71,191.45-101.37,219.37-168.85,219.37-168.85-35.9-14.96-45.87-45.87-45.87-45.87Z"/><path class="cls-1" d="m697.7,99.84C524.32-50.45,259.2-28.58,105.54,148.69c-153.65,177.27-137.66,442.81,35.73,593.1,6.34,5.49,12.81,10.73,19.38,15.76l24.56-25.19c-.28-.24-.57-.47-.85-.71C21.81,590.74,9.19,339.01,156.21,169.4,303.16-.14,567.09-6.9,729.67,133.83c-21.81-23.65-25.44-28.35-31.96-34Z"/><path class="cls-1" d="m233.87,767.92c-6.63,6.76-14.84,15.06-22.54,22.8,168.85,93.28,387.96,56.98,522.1-97.79,1.9-2.19,3.9-6.31,5.75-8.53-133.26,147.53-347,180.81-505.32,83.52Z"/></g><g id="Livello_9"><path class="cls-1" d="m778.16,328.53c7.93-35.33-12.8-68.16-40.37-72.22-7.47-1.1-14.88,0-21.8,2.88-12.33,5.13-23.15,15.96-30.18,30.26-2.6-15.66-9.79-29.11-20.06-37.59-5.83-4.81-12.58-8.56-20.16-9.14-28.75-2.19-54.68,25.56-59.49,57.51-3.98,26.45,17.69,57.82,23.5,65.68,1.13,1.52,2.21,3.07,3.25,4.65l41.17,62.66,8.83,13.44,12.13-10.33,60.34-51.37s36.53-28.28,42.85-56.43Z"/></g><g id="Livello_8"><polyline class="cls-2" points="783.14 351.66 731.04 352.2 722.03 297.58 707.72 395.2 697.82 315.31 688.53 352.2 666.87 351.66 663.16 318.63 655.64 351.66 597.33 351.66"/></g></svg>